<svg id="Layer_1" data-name="Layer 1" xmlns="http://www.w3.org/2000/svg" viewBox="0 0 758.31 875.41"><defs><style>.cls-1{fill:#9dd0e8;}</style></defs><path class="cls-1" d="M1075.61,827.59c-50.73,0-103-11.58-155.3-34.44C820.67,749.64,733.06,670.33,673.6,569.81s-83.66-210.24-68.12-308.92C620.1,168,669,94.47,743.21,53.8c40.52-22.21,86.29-33.66,136.06-34C930.73,19.39,983.82,31,1037,54.21c99.63,43.5,187.25,122.82,246.71,223.34s83.66,210.24,68.12,308.92c-14.63,92.87-63.54,166.42-137.73,207.09-40.52,22.21-86.3,33.66-136.06,34ZM881.68,21h-2.41c-49.55.36-95.14,11.76-135.47,33.87C670,95.35,621.25,168.59,606.69,261.08c-15.5,98.4,8.64,207.82,68,308.11S821.4,748.62,920.8,792c53,23.15,105.85,34.68,157.22,34.32,49.56-.36,95.14-11.75,135.48-33.86C1287.35,752,1336,678.77,1350.61,586.28c15.49-98.4-8.64-207.82-68-308.11S1135.9,98.73,1036.5,55.33C984.32,32.54,932.24,21,881.68,21Z" transform="translate(-600.88 -19.77)"/><path class="cls-1" d="M1082.11,895.18c-2.77,0-5.53,0-8.32-.1-51.18-1.29-103.53-14.47-155.58-39.15-97.08-46-181-126.75-236.4-227.27s-75.52-208.86-56.73-305c17.58-90,68.12-160.18,142.3-197.63,40.94-20.67,86.77-30.52,136.25-29.27,51.18,1.29,103.52,14.46,155.57,39.14,97.09,46,181,126.76,236.41,227.28s75.52,208.86,56.73,305c-17.58,90-68.12,160.18-142.3,197.63C1171.41,885.31,1128.4,895.18,1082.11,895.18ZM895.31,97.86c-46.1,0-88.92,9.82-127.38,29.24-73.84,37.27-124.14,107.16-141.65,196.77-18.73,95.88,1.37,203.91,56.6,304.2s139,180.83,235.86,226.75c51.89,24.61,104.07,37.75,155.08,39,49.27,1.23,94.91-8.56,135.67-29.13,73.83-37.28,124.14-107.16,141.65-196.78,18.73-95.87-1.37-203.91-56.6-304.19s-139-180.83-235.86-226.76c-51.9-24.61-104.07-37.74-155.08-39Q899.43,97.86,895.31,97.86Z" transform="translate(-600.88 -19.77)"/><path class="cls-1" d="M1071,819.4q-9.24,0-18.65-.54c-50.81-2.93-102.37-17.63-153.25-43.72C804.58,726.71,724.29,644.75,673,544.37s-67.51-207.23-45.6-300.81c20.4-87.11,72.45-154,146.56-188.28,41.3-19.12,87.15-27.38,136.25-24.55,50.81,2.92,102.38,17.63,153.25,43.72,94.48,48.43,174.77,130.38,226.08,230.77S1357,512.45,1335.11,606c-20.4,87.11-72.44,154-146.55,188.28C1152.53,811,1113,819.4,1071,819.4ZM899.61,774.05c50.73,26,102.12,40.67,152.76,43.59,48.91,2.81,94.56-5.41,135.68-24.44,73.75-34.15,125.56-100.72,145.87-187.45,21.85-93.29,5.69-199.83-45.49-300s-131.3-181.93-225.55-230.25c-50.72-26-102.12-40.66-152.76-43.58-48.91-2.81-94.55,5.41-135.67,24.44C700.69,90.54,648.89,157.1,628.58,243.84c-21.85,93.29-5.69,199.83,45.49,300S805.36,725.74,899.61,774.05Z" transform="translate(-600.88 -19.77)"/><path class="cls-1" d="M1072.05,884.63q-14.11,0-28.58-1.3c-50.37-4.53-101.09-20.72-150.74-48.13C800.92,784.51,724.31,701.46,677,601.34S617.36,396,642.28,305c23.08-84.22,76.53-147.81,150.5-179,41.61-17.57,87.4-24.26,136.09-19.89,50.37,4.53,101.09,20.73,150.74,48.14C1171.42,204.94,1248,288,1295.34,388.11s59.64,205.36,34.72,296.3c-23.08,84.23-76.52,147.81-150.49,179C1146.2,877.53,1110.13,884.63,1072.05,884.63ZM900.29,106.05c-37.92,0-73.81,7.06-107,21.08-73.61,31.08-126.81,94.38-149.79,178.23C618.62,396,630.93,501,678.11,600.82s123.63,182.74,215.21,233.3c49.51,27.33,100.06,43.48,150.26,48,48.49,4.36,94.08-2.3,135.51-19.79,73.62-31.08,126.81-94.38,149.79-178.23,24.84-90.66,12.54-195.59-34.65-295.46S1170.61,205.89,1079,155.33c-49.5-27.33-100.06-43.47-150.26-48Q914.36,106.05,900.29,106.05Z" transform="translate(-600.88 -19.77)"/><path class="cls-1" d="M1065.69,811.19a313.58,313.58,0,0,1-38.14-2.36c-49.87-6.09-99.69-23.72-148.06-52.39-89.09-52.8-162-136.79-205.38-236.51S622.19,316.67,650,228.41C675.61,147.07,730.36,86.72,804.13,58.5c41.87-16,87.55-21.14,135.75-15.25,49.88,6.09,99.69,23.72,148.06,52.38,89.1,52.81,162,136.8,205.38,236.52s51.92,203.26,24.12,291.51c-25.62,81.35-80.36,141.69-154.14,169.91A271.51,271.51,0,0,1,1065.69,811.19Zm-185.57-55.8C928.34,784,978,801.54,1027.7,807.61c48,5.87,93.48.76,135.16-15.18,73.42-28.08,127.91-88.15,153.42-169.13,27.71-88,19.16-191.2-24.08-290.66s-116-183.28-204.89-235.95c-48.22-28.58-97.87-46.15-147.57-52.23-48-5.86-93.49-.76-135.17,15.19-73.42,28.08-127.9,88.15-153.41,169.13-27.72,88-19.16,191.2,24.07,290.66S791.24,702.72,880.12,755.39Z" transform="translate(-600.88 -19.77)"/><path class="cls-1" d="M1061.77,873.79a309.62,309.62,0,0,1-47.34-3.72c-49.31-7.62-98.16-26.62-145.2-56.47C782.89,758.81,713.62,674,674.17,574.83s-44.36-200.94-13.8-286.46c28-78.49,84-135.63,157.52-160.91,42.07-14.46,87.57-18,135.23-10.69,49.31,7.63,98.16,26.63,145.2,56.48C1184.66,228,1253.93,312.83,1293.38,412s44.35,200.94,13.79,286.47c-28,78.48-84,135.63-157.51,160.9A268.86,268.86,0,0,1,1061.77,873.79Zm-156-759.51a267.74,267.74,0,0,0-87.49,14.34c-73.17,25.15-128.85,82-156.76,160.16C631.07,374,636,475.45,675.31,574.38S783.76,757.92,869.88,812.56c46.9,29.76,95.59,48.7,144.74,56.3,47.46,7.34,92.76,3.76,134.64-10.63,73.17-25.16,128.84-82,156.76-160.16,30.46-85.25,25.56-186.67-13.78-285.6s-108.46-183.54-194.58-238.19h0c-46.89-29.76-95.59-48.7-144.73-56.3A308.49,308.49,0,0,0,905.78,114.28Z" transform="translate(-600.88 -19.77)"/><path class="cls-1" d="M1060.21,802.82c-65.66,0-134.93-22.47-198.57-65.62C778.1,680.56,712.48,595.11,676.88,496.57s-37-198.4-3.76-281.16c30.34-75.63,87.39-129.63,160.62-152,86.17-26.35,187-6.59,276.71,54.21,83.54,56.63,149.16,142.09,184.76,240.62s37,198.41,3.76,281.16c-30.34,75.64-87.39,129.63-160.62,152A266.74,266.74,0,0,1,1060.21,802.82ZM862.32,736.18c89.38,60.6,189.86,80.3,275.67,54.06,72.87-22.29,129.64-76,159.84-151.31,33.08-82.48,31.75-182-3.77-280.29s-101-183.54-184.29-240C1020.39,58,919.91,38.32,834.1,64.56c-72.87,22.29-129.64,76-159.84,151.31-33.08,82.47-31.75,182,3.77,280.29S779,679.69,862.32,736.18Z" transform="translate(-600.88 -19.77)"/><path class="cls-1" d="M1051.74,862.58c-67.92,0-139.41-24.56-204-71.28C767,733,705,647,673.2,549.22s-29.71-195.67,6-275.62c32.52-72.82,90.57-123.7,163.47-143.27,86.35-23.2,185.73-.46,272.65,62.39C1196,251.07,1258,337,1289.83,434.81s29.71,195.67-6,275.62c-32.52,72.81-90.57,123.69-163.47,143.27A264.2,264.2,0,0,1,1051.74,862.58ZM911.3,122.67A262.81,262.81,0,0,0,843,131.51C770.45,151,712.68,201.63,680.32,274.1c-35.58,79.67-37.7,177.24-6,274.74s93.57,183.27,174.07,241.47c86.62,62.63,185.62,85.3,271.62,62.2,72.53-19.48,130.3-70.12,162.66-142.58,35.59-79.68,37.7-177.25,6-274.74s-93.57-183.28-174.06-241.48C1050.2,147.15,979,122.67,911.3,122.67Z" transform="translate(-600.88 -19.77)"/><path class="cls-1" d="M1054.52,794.52c-70.11,0-143.71-26.69-209-77h0c-77.85-59.94-136.2-146.3-164.32-243.18s-22.63-192.74,15.46-269.85c34.59-70,93.57-117.83,166.07-134.65,86.42-20,184.2,5.59,268.27,70.32,77.85,59.93,136.2,146.29,164.32,243.17s22.63,192.74-15.46,269.86c-34.59,70-93.57,117.82-166.07,134.64A262,262,0,0,1,1054.52,794.52ZM921.94,64.42a260.55,260.55,0,0,0-59,6.64c-72.14,16.73-130.83,64.32-165.25,134-38,76.84-43.42,172.36-15.38,269s86.24,182.77,163.88,242.55c83.79,64.5,181.19,90,267.25,70.09,72.14-16.73,130.83-64.32,165.25-134,38-76.84,43.42-172.37,15.39-269s-86.25-182.77-163.89-242.55C1065.12,91,991.78,64.42,921.94,64.42Z" transform="translate(-600.88 -19.77)"/><path class="cls-1" d="M1041.81,851.23c-72.27,0-147.85-28.88-213.63-82.75-74.95-61.39-129.71-148-154.19-243.89S658.26,335,698.62,260.7c36.54-67.23,96.36-112,168.44-126.14,86.35-16.9,182.42,11.51,263.57,78,74.95,61.39,129.71,148,154.19,243.89s15.73,189.63-24.63,263.89c-36.54,67.23-96.36,112-168.44,126.14A259.86,259.86,0,0,1,1041.81,851.23ZM917,131a259.14,259.14,0,0,0-49.71,4.75c-71.71,14.05-131.23,58.62-167.6,125.53-40.21,74-48.92,167.38-24.51,263s79,182,153.78,243.24C894.51,821.22,969.83,850,1041.8,850a258.27,258.27,0,0,0,49.71-4.76c71.72-14,131.24-58.61,167.6-125.52,40.22-74,48.93-167.38,24.52-263s-79-182-153.78-243.24C1064.29,159.79,989,131,917,131Z" transform="translate(-600.88 -19.77)"/><path class="cls-1" d="M1048.83,786.15C974.45,786.15,897,755,831,697.6c-72-62.71-123.25-149.45-144.15-244.24s-9-186.35,33.49-257.73c38.39-64.47,99-106.29,170.58-117.76,86.17-13.79,180.4,17.32,258.56,85.34,72,62.72,123.24,149.46,144.15,244.25s9,186.34-33.49,257.72c-38.4,64.48-99,106.3-170.59,117.76A257.43,257.43,0,0,1,1048.83,786.15ZM931.71,75.89a256.21,256.21,0,0,0-40.56,3.19c-71.25,11.41-131.52,53-169.73,117.18-42.35,71.11-54.19,162.32-33.35,256.83s71.91,181,143.76,243.59c65.76,57.23,142.92,88.24,217,88.24a256.34,256.34,0,0,0,40.57-3.19c71.24-11.4,131.52-53,169.72-117.17,42.35-71.12,54.19-162.33,33.35-256.84s-71.9-181-143.76-243.58C1083,106.9,1005.78,75.89,931.71,75.89Z" transform="translate(-600.88 -19.77)"/><path class="cls-1" d="M1032.22,839.65c-76.45,0-155.64-33.4-221.58-94.37C741.51,681.36,693.85,594.62,676.44,501s-2.48-182.9,42-251.39C758.63,187.89,819.9,149,891,140.14c85.83-10.71,178.14,23,253.24,92.42,69.13,63.91,116.79,150.66,134.2,244.25s2.49,182.9-42,251.39c-40.15,61.74-101.42,100.63-172.52,109.5A256.9,256.9,0,0,1,1032.22,839.65ZM922.67,139.42a254.63,254.63,0,0,0-31.52,1.94c-70.73,8.82-131.69,47.51-171.64,109-44.35,68.22-59.22,157.18-41.87,250.49s64.89,179.84,133.83,243.58c74.84,69.19,166.78,102.76,252.26,92.1,70.74-8.82,131.69-47.51,171.64-109,44.36-68.23,59.23-157.18,41.87-250.5s-64.89-179.83-133.83-243.57C1077.7,172.71,998.8,139.42,922.67,139.42Z" transform="translate(-600.88 -19.77)"/><path class="cls-1" d="M1043.23,777.71c-78.48,0-159.33-35.74-225-100.2-66.19-65-110.35-151.61-124.35-243.92s3.86-179.29,50.29-244.87C786,129.66,847.87,93.66,918.42,87.35c85.39-7.64,175.65,28.51,247.65,99.2,66.19,65,110.35,151.61,124.35,243.91s-3.86,179.3-50.3,244.88c-41.8,59-103.68,95-174.23,101.37Q1054.61,777.71,1043.23,777.71ZM941.08,87.57q-11.33,0-22.55,1c-70.19,6.28-131.75,42.1-173.35,100.85-46.24,65.33-64,152-50.08,244s58,178.42,124,243.23c65.42,64.22,146,99.84,224.13,99.85q11.32,0,22.55-1c70.19-6.29,131.75-42.11,173.35-100.86,46.24-65.32,64-152,50.08-244s-58-178.42-124-243.22C1099.79,123.19,1019.24,87.57,941.08,87.57Z" transform="translate(-600.88 -19.77)"/><path class="cls-1" d="M1023.09,827.88c-80.51,0-162.89-38.13-228-106A424.93,424.93,0,0,1,680.44,478.6c-10.66-91,10-175.55,58.23-238.22C782,184,844.46,150.84,914.43,147c84.8-4.63,172.92,33.89,241.77,105.65a424.93,424.93,0,0,1,114.62,243.25c10.66,90.95-10,175.55-58.23,238.23-43.37,56.38-105.79,89.53-175.76,93.35Q1030,827.89,1023.09,827.88Zm-94.92-680q-6.85,0-13.67.37C844.89,152,782.79,185,739.64,241.12c-48,62.42-68.61,146.71-58,237.34A423.54,423.54,0,0,0,796,721c68.6,71.51,156.37,109.87,240.81,105.28,69.61-3.79,131.71-36.77,174.86-92.87,48-62.42,68.61-146.71,58-237.33a423.54,423.54,0,0,0-114.29-242.55C1090.41,185.87,1008.34,147.88,928.17,147.88Z" transform="translate(-600.88 -19.77)"/><path class="cls-1" d="M1037.83,769.23c-82.51,0-166.33-40.56-230.72-111.85a414.5,414.5,0,0,1-105-242.26c-7.4-89.48,16-171.67,65.86-231.43C812.8,129.94,875.69,99.6,945,98.24c84.09-1.64,170,39.1,235.64,111.8a414.56,414.56,0,0,1,105,242.26c7.4,89.48-16,171.67-65.86,231.43-44.85,53.74-107.74,84.09-177.08,85.45C1041.11,769.21,1039.47,769.23,1037.83,769.23ZM808,656.56c65.42,72.43,151,113,234.7,111.4,69-1.36,131.55-31.55,176.17-85,49.67-59.51,73-141.38,65.58-230.54a413.3,413.3,0,0,0-104.71-241.54c-65.42-72.43-150.93-113-234.7-111.4-69,1.35-131.55,31.54-176.17,85C719.22,244,695.93,325.86,703.31,415A413.32,413.32,0,0,0,808,656.56Z" transform="translate(-600.88 -19.77)"/><path class="cls-1" d="M1014.47,816l-3.79,0c-83.25-1.27-166.81-44.14-229.26-117.6-57.37-67.49-91.31-153.07-95.54-241S707.62,289.7,759,232.85c46.25-51.14,109.55-78.72,178.22-77.67,83.25,1.28,166.81,44.15,229.26,117.61,57.38,67.49,91.31,153.07,95.55,241s-21.75,167.66-73.16,224.51C1143.51,788.46,1081.68,816,1014.47,816Zm-81-659.58c-66.86,0-128.36,27.36-173.52,77.29-51.2,56.61-77.07,136-72.85,223.63s38,173,95.26,240.24c62.21,73.19,145.44,115.9,228.34,117.17,68.33,1,131.29-26.39,177.3-77.26,51.2-56.61,77.07-136,72.84-223.63s-38-173-95.25-240.24c-62.22-73.19-145.45-115.9-228.35-117.17C936,156.39,934.73,156.38,933.47,156.38Z" transform="translate(-600.88 -19.77)"/><path class="cls-1" d="M1032.59,760.71q-6.15,0-12.35-.31c-82.28-4.14-163.43-49-222.65-123.07C743.15,569.24,712.53,484.22,711.37,398s27.31-163.53,80.16-217.48c47.56-48.56,111.19-73.42,179.17-70,82.28,4.14,163.44,49,222.65,123.06,54.45,68.1,85.07,153.11,86.22,239.38s-27.31,163.54-80.15,217.48C1154.74,736,1095.9,760.71,1032.59,760.71ZM958.35,111.39c-63,0-121.51,24.57-166,69.94C739.79,235,711.45,312,712.6,397.94s31.67,170.75,85.95,238.63c59,73.79,139.82,118.48,221.75,122.61,67.62,3.4,130.92-21.33,178.24-69.63,52.62-53.71,81-130.64,79.81-216.61s-31.68-170.75-85.95-238.63c-59-73.8-139.83-118.48-221.76-122.61Q964.47,111.39,958.35,111.39Z" transform="translate(-600.88 -19.77)"/><path class="cls-1" d="M1006.32,803.94q-10.34,0-20.81-.89c-81.18-6.95-159.85-53.67-215.83-128.18-51.52-68.59-78.88-152.94-77-237.51S725.31,278.06,779.47,227c48.81-46,112.72-68.18,179.95-62.43,81.18,6.94,159.85,53.66,215.83,128.17,51.52,68.59,78.88,152.94,77,237.51s-32.67,159.31-86.83,210.35C1121.72,781.85,1065.84,803.94,1006.32,803.94Zm-67.71-639c-59.21,0-114.79,22-158.3,63-53.92,50.82-84.62,125.22-86.45,209.49s25.45,168.37,76.8,236.74c55.77,74.24,134.12,120.78,215,127.7,66.87,5.71,130.45-16.34,179-62.11,53.92-50.82,84.62-125.22,86.45-209.49s-25.44-168.37-76.8-236.74c-55.77-74.24-134.12-120.78-215-127.69Q948.9,164.9,938.61,164.91Z" transform="translate(-600.88 -19.77)"/><path class="cls-1" d="M1027.62,752.18a243.37,243.37,0,0,1-29.16-1.77c-80-9.67-156.08-58.13-208.82-132.94-48.61-69-72.77-152.55-68-235.35s37.84-155,93.19-203.15c50-43.48,114.1-63,180.54-55,80,9.67,156.09,58.12,208.82,132.94,48.61,69,72.77,152.54,68,235.35s-37.84,155-93.19,203.14A228.68,228.68,0,0,1,1027.62,752.18ZM966.19,123.45A227.42,227.42,0,0,0,815.61,179.9c-55.1,47.94-88.05,119.79-92.77,202.29S742.19,548,790.65,616.76c52.53,74.53,128.33,122.8,208,132.43a240.83,240.83,0,0,0,29,1.76,227.46,227.46,0,0,0,150.59-56.44c55.1-48,88-119.79,92.77-202.29s-19.36-165.84-67.81-234.58c-52.54-74.53-128.34-122.8-208-132.43A242.77,242.77,0,0,0,966.19,123.45Z" transform="translate(-600.88 -19.77)"/><path class="cls-1" d="M998.82,791.85a240.83,240.83,0,0,1-37.39-2.94C882.79,776.59,809.3,726.53,759.8,651.57c-45.72-69.23-66.74-152-59.19-232.93s42.8-150.56,99.24-195.86c51.07-41,115.33-57.91,180.95-47.63,78.64,12.33,152.13,62.38,201.62,137.34,45.72,69.24,66.74,152,59.19,232.94s-42.8,150.56-99.23,195.86A227.69,227.69,0,0,1,998.82,791.85ZM943.41,173.44a226.45,226.45,0,0,0-142.8,50.29c-56.17,45.1-91.25,114.35-98.78,195s13.42,163.14,59,232.15c49.31,74.67,122.5,124.53,200.8,136.8,65.27,10.23,129.19-6.59,180-47.37,56.18-45.09,91.26-114.35,98.78-195s-13.42-163.14-59-232.14c-49.31-74.68-122.49-124.54-200.79-136.81A240.93,240.93,0,0,0,943.41,173.44Z" transform="translate(-600.88 -19.77)"/><path class="cls-1" d="M1023,743.65a240.11,240.11,0,0,1-45.5-4.39c-77.19-14.89-148-66.41-194.29-141.37-42.84-69.41-60.79-151.19-50.51-230.27s47.55-146.06,105-188.52c52.1-38.52,116.44-52.86,181.18-40.37,77.19,14.88,148,66.41,194.29,141.37,42.84,69.4,60.79,151.18,50.51,230.26s-47.55,146.06-105,188.52A226.74,226.74,0,0,1,1023,743.65ZM784.27,597.24c46.09,74.67,116.61,126,193.47,140.81,64.4,12.42,128.4-1.84,180.22-40.16,118-87.25,142.27-274.39,54.13-417.15-46.09-74.67-116.61-126-193.47-140.81-64.4-12.42-128.4,1.84-180.22,40.16C720.41,267.34,696.13,454.48,784.27,597.24Z" transform="translate(-600.88 -19.77)"/><path class="cls-1" d="M992,779.74a239.09,239.09,0,0,1-53.49-6.13c-75.64-17.35-143.72-70.22-186.8-145-40-69.47-54.93-150.21-42-227.35S761.79,259.73,820.07,220.1c53-36.08,117.41-47.88,181.23-33.24,75.63,17.36,143.72,70.22,186.8,145,40,69.47,54.93,150.21,42,227.35S1178,700.74,1119.75,740.38A225.87,225.87,0,0,1,992,779.74ZM947.81,182a224.65,224.65,0,0,0-127,39.15C701,302.56,670.5,485.07,752.78,628c42.91,74.53,110.71,127.18,186,144.46,63.49,14.57,127.51,2.83,180.27-33.06,119.76-81.45,150.26-264,68-406.85-42.91-74.52-110.71-127.18-186-144.45A237.85,237.85,0,0,0,947.81,182Z" transform="translate(-600.88 -19.77)"/><path class="cls-1" d="M1018.82,735.15A237.8,237.8,0,0,1,957.48,727c-74-19.73-139.29-73.79-179.2-148.34-37.19-69.44-49.17-149.06-33.74-224.2S801,217.61,860,180.77c53.93-33.66,118.25-43,181.11-26.2,74,19.73,139.28,73.8,179.2,148.34,37.18,69.44,49.16,149.07,33.74,224.21S1197.63,664,1138.59,700.81A225.12,225.12,0,0,1,1018.82,735.15Zm-39-587.49a223.86,223.86,0,0,0-119.12,34.15c-121.31,75.7-157.79,253.48-81.32,396.29,39.75,74.24,104.79,128.09,178.43,147.73,62.53,16.67,126.51,7.42,180.15-26.06,121.31-75.7,157.79-253.47,81.32-396.28-39.76-74.25-104.79-128.09-178.44-147.73A236.63,236.63,0,0,0,979.8,147.66Z" transform="translate(-600.88 -19.77)"/><path class="cls-1" d="M985.93,767.67a236.88,236.88,0,0,1-69-10.43c-72.2-22-134.72-77.13-171.5-151.26-34.4-69.32-43.5-147.75-25.64-220.85S780.33,253,840,218.89c54.75-31.26,119-38.1,180.81-19.26,72.2,22,134.71,77.13,171.5,151.26,34.4,69.32,43.5,147.75,25.64,220.85S1157.38,703.9,1097.69,738A224.49,224.49,0,0,1,985.93,767.67ZM951.78,190.43A223.27,223.27,0,0,0,840.63,220C718,290,675.74,462.9,746.47,605.43c36.64,73.83,98.88,128.74,170.77,150.64,61.51,18.74,125.38,11.94,179.84-19.16,122.65-70,164.88-242.94,94.15-385.47-36.63-73.84-98.88-128.74-170.76-150.64A235.42,235.42,0,0,0,951.78,190.43Z" transform="translate(-600.88 -19.77)"/><path class="cls-1" d="M1015.07,726.72a235.6,235.6,0,0,1-76.59-13c-70.35-24.16-130-80.23-163.73-153.83C743.11,490.83,736.81,413.66,757,342.65s64.52-127.43,124.77-158.78c55.51-28.88,119.55-33.3,180.32-12.43,70.35,24.16,130,80.23,163.73,153.83,31.64,69.09,37.94,146.25,17.74,217.27S1179.05,670,1118.8,701.31A223.87,223.87,0,0,1,1015.07,726.72ZM775.86,559.41c33.57,73.3,93,129.13,163,153.18C999.33,733.35,1063,729,1118.24,700.23c123.77-64.41,171.53-232.38,106.48-374.45-33.57-73.3-93-129.13-163-153.18-60.45-20.76-124.15-16.37-179.36,12.36C758.57,249.36,710.8,417.34,775.86,559.41Z" transform="translate(-600.88 -19.77)"/><path class="cls-1" d="M980.59,755.68a234.43,234.43,0,0,1-84-15.78c-68.41-26.21-125.24-83.07-155.91-156-28.93-68.79-32.49-144.61-10.05-213.5s68.25-122.65,129-151.31c56.2-26.53,120-28.55,179.65-5.7,68.41,26.2,125.23,83.07,155.91,156,28.92,68.78,32.49,144.61,10,213.5s-68.25,122.65-129,151.3A223.37,223.37,0,0,1,980.59,755.68ZM955.31,198.81a222.39,222.39,0,0,0-95.17,21.37C735.45,279.05,682.38,442,741.84,583.4,772.39,656.05,829,712.67,897.06,738.76c59.34,22.73,122.8,20.71,178.69-5.67,124.69-58.87,177.76-221.81,118.3-363.23-30.55-72.64-87.12-129.26-155.22-155.35A233.16,233.16,0,0,0,955.31,198.81Z" transform="translate(-600.88 -19.77)"/><path class="cls-1" d="M1011.78,718.38a233.45,233.45,0,0,1-91.16-18.82c-66.39-28.14-120.35-85.68-148-157.86h0C718.39,400.5,776.83,242,902.83,188.31c56.83-24.2,120.32-23.87,178.8.91,66.39,28.14,120.35,85.68,148,157.86,54.18,141.19-4.25,299.72-130.26,353.38A223.13,223.13,0,0,1,1011.78,718.38ZM773.71,541.26C801.3,613.13,855,670.42,921.1,698.43c58.17,24.65,121.32,25,177.84.91,125.41-53.41,183.55-211.24,129.6-351.82-27.58-71.88-81.3-129.16-147.39-157.17-58.16-24.66-121.32-25-177.84-.91C777.9,242.85,719.77,400.67,773.71,541.26Z" transform="translate(-600.88 -19.77)"/><path class="cls-1" d="M976,743.82a232.11,232.11,0,0,1-98.15-22.1c-64.3-30-115.39-88-140.18-159.34-48.74-140.21,14.56-293.54,141.11-341.81,57.38-21.88,120.51-19.26,177.75,7.41,64.3,30,115.39,88,140.18,159.34,48.74,140.2-14.56,293.53-141.11,341.8A222.75,222.75,0,0,1,976,743.82ZM958.37,207.1a221.61,221.61,0,0,0-79.16,14.62C753.27,269.75,690.29,422.39,738.82,562c24.68,71,75.54,128.83,139.54,158.64,56.94,26.52,119.72,29.13,176.79,7.37,125.94-48,188.92-200.68,140.39-340.26-24.68-71-75.54-128.82-139.54-158.63A230.92,230.92,0,0,0,958.37,207.1Z" transform="translate(-600.88 -19.77)"/><path class="cls-1" d="M1009,710.16a230.93,230.93,0,0,1-105-25.61,255.15,255.15,0,0,1-80.11-64.17,278.07,278.07,0,0,1-52.21-96.3C728.3,385,796.24,237,923.13,194c57.87-19.6,120.56-14.7,176.51,13.79A255.33,255.33,0,0,1,1179.76,272a278.22,278.22,0,0,1,52.2,96.3c43.39,139.05-24.55,287.12-151.44,330.09A222.81,222.81,0,0,1,1009,710.16ZM994.69,183.4a221.7,221.7,0,0,0-71.17,11.75C797.25,237.91,729.66,385.3,772.85,523.71a276.67,276.67,0,0,0,52,95.88,254,254,0,0,0,79.73,63.87c55.65,28.34,118,33.21,175.57,13.72C1206.39,654.42,1274,507,1230.79,368.62a276.81,276.81,0,0,0-52-95.88,254.06,254.06,0,0,0-79.73-63.87A229.75,229.75,0,0,0,994.69,183.4Z" transform="translate(-600.88 -19.77)"/><path class="cls-1" d="M972.16,732.14c-38.28,0-76.47-9.89-111.54-29.32a252.27,252.27,0,0,1-76.49-65.55,271.81,271.81,0,0,1-48-95.72C698,403.82,770.35,261.06,897.4,223.3c58.3-17.33,120.48-10.21,175.09,20A252.2,252.2,0,0,1,1149,308.89a271.56,271.56,0,0,1,48,95.72c38.13,137.73-34.22,280.5-161.26,318.26A222.8,222.8,0,0,1,972.16,732.14ZM960.94,215.26a221.69,221.69,0,0,0-63.19,9.21C771.34,262,699.37,404.14,737.31,541.22a270.37,270.37,0,0,0,47.79,95.3,251,251,0,0,0,76.11,65.23c54.32,30.09,116.17,37.17,174.15,19.94,126.41-37.57,198.38-179.66,160.43-316.75A270.39,270.39,0,0,0,1148,309.65a251.09,251.09,0,0,0-76.11-65.23C1037,225.09,999,215.26,960.94,215.26Z" transform="translate(-600.88 -19.77)"/><path class="cls-1" d="M1006.63,702.08c-40.82,0-81.35-11.26-117.93-33.23a249.07,249.07,0,0,1-72.83-66.74,265.24,265.24,0,0,1-43.86-95C739,370.87,815.56,233.45,942.58,200.8c58.66-15.08,120.27-5.78,173.48,26.18a249.07,249.07,0,0,1,72.83,66.74,265.24,265.24,0,0,1,43.86,95c33,136.26-43.55,273.67-170.57,306.32A222.72,222.72,0,0,1,1006.63,702.08ZM773.2,506.83a263.74,263.74,0,0,0,43.66,94.55,247.84,247.84,0,0,0,72.47,66.42c52.93,31.79,114.21,41,172.55,26,126.37-32.48,202.49-169.23,169.68-304.84a263.74,263.74,0,0,0-43.66-94.55A247.71,247.71,0,0,0,1115.43,228c-52.93-31.79-114.2-41-172.54-26C816.51,234.47,740.39,371.22,773.2,506.83Z" transform="translate(-600.88 -19.77)"/><path class="cls-1" d="M969.12,720.67c-43.37,0-86.19-12.71-124.09-37.32a245.66,245.66,0,0,1-69.17-67.76,258.64,258.64,0,0,1-39.8-94.11c-27.92-134.64,52.55-266.67,179.37-294.31,59-12.85,119.91-1.42,171.66,32.18a245.66,245.66,0,0,1,69.17,67.76,258.64,258.64,0,0,1,39.8,94.11c27.92,134.64-52.55,266.66-179.37,294.31A223.2,223.2,0,0,1,969.12,720.67ZM963,223.25a222.06,222.06,0,0,0-47.31,5.11C789.52,255.87,709.48,387.25,737.26,521.23a257.31,257.31,0,0,0,39.61,93.67,244.17,244.17,0,0,0,68.83,67.42c51.47,33.42,112.1,44.79,170.73,32,126.17-27.5,206.21-158.88,178.43-292.86a257.31,257.31,0,0,0-39.61-93.67,244.44,244.44,0,0,0-68.82-67.43C1048.73,235.9,1006.13,223.25,963,223.25Z" transform="translate(-600.88 -19.77)"/><path class="cls-1" d="M1004.86,694.17c-45.93,0-91-14.25-130-41.58A242,242,0,0,1,809.31,584a252.39,252.39,0,0,1-35.83-93.1C750.51,358,834.7,231.39,961.15,208.64c59.17-10.64,119.42,2.86,169.65,38a241.88,241.88,0,0,1,65.51,68.61,252.41,252.41,0,0,1,35.83,93.09c23,132.88-61.22,259.5-187.67,282.24A223,223,0,0,1,1004.86,694.17Zm-4.11-487.85a222.4,222.4,0,0,0-39.39,3.53c-125.78,22.63-209.52,148.6-186.67,280.82C786.15,556.94,822,614.08,875.52,651.59c38.82,27.18,83.67,41.35,129.34,41.35a222.3,222.3,0,0,0,39.39-3.52c125.79-22.63,209.53-148.61,186.68-280.83-11.46-66.26-47.26-123.41-100.83-160.91C1091.28,220.5,1046.43,206.32,1000.75,206.32Z" transform="translate(-600.88 -19.77)"/><path class="cls-1" d="M966.92,709.46c-48.5,0-95.79-15.86-135.78-46-51.45-38.77-84.76-96-93.79-161.24-18.14-131,69.54-252.17,195.45-270.14,59.32-8.46,118.79,7.08,167.45,43.74,51.45,38.77,84.76,96,93.79,161.25,18.14,131-69.54,252.17-195.45,270.13A223.89,223.89,0,0,1,966.92,709.46Zm-2.46-478.4A223,223,0,0,0,933,233.31C807.73,251.17,720.52,371.73,738.56,502.06c9,64.88,42.13,121.86,93.32,160.43C880.28,699,939.43,714.41,998.42,706c125.25-17.87,212.46-138.43,194.41-268.75-9-64.89-42.12-121.87-93.31-160.44C1059.74,246.84,1012.71,231.06,964.46,231.06Z" transform="translate(-600.88 -19.77)"/><path class="cls-1" d="M1003.71,686.46c-51.11,0-100.56-17.55-141.31-50.55-49.06-39.72-79.73-96.72-86.37-160.5-13.42-129,77.53-244.71,202.74-258,59.4-6.3,118,11.2,165.06,49.29,49.05,39.72,79.73,96.72,86.36,160.5,13.42,129-77.52,244.71-202.73,258A223,223,0,0,1,1003.71,686.46ZM777.25,475.28c6.6,63.45,37.11,120.16,85.92,159.68,46.78,37.89,105.08,55.29,164.16,49,124.54-13.23,215-128.36,201.64-256.66-6.6-63.45-37.11-120.16-85.91-159.68-46.79-37.88-105.08-55.29-164.16-49C854.36,231.85,763.9,347,777.25,475.28Z" transform="translate(-600.88 -19.77)"/><path class="cls-1" d="M965.58,698.58c-54.55,0-106.69-19.84-148.29-56.73-45.62-40.45-73.09-96.56-77.37-158C731.1,357,825.09,246.73,949.45,238c60.25-4.24,118.55,15.71,164.17,56.16s73.09,96.57,77.37,158C1199.82,579,1105.82,689.28,981.46,698Q973.49,698.58,965.58,698.58Zm-.26-459.93q-7.86,0-15.79.56c-123.68,8.69-217.17,118.4-208.39,244.56,4.26,61.11,31.59,116.93,77,157.16S921.46,701,981.37,696.79c123.69-8.69,217.18-118.4,208.4-244.55-4.26-61.12-31.59-116.93-77-157.17C1071.43,258.38,1019.57,238.65,965.32,238.65Z" transform="translate(-600.88 -19.77)"/><path class="cls-1" d="M1003.25,679a221.24,221.24,0,0,1-152.57-60.79,225.72,225.72,0,0,1-71.11-157.47C775.22,336.17,872,231.31,995.4,227S1222.66,320.54,1227,445.12s-92.47,229.43-215.83,233.74Q1007.21,679,1003.25,679Zm0-450.91c-2.59,0-5.18,0-7.79.14-122.69,4.28-219,108.57-214.65,232.47a224.49,224.49,0,0,0,70.72,156.62,220,220,0,0,0,151.73,60.45c2.63,0,5.25,0,7.89-.13,122.68-4.29,219-108.58,214.65-232.48C1221.55,323.9,1122.47,228.09,1003.24,228.09Z" transform="translate(-600.88 -19.77)"/><path class="cls-1" d="M965.33,688.05c-122.21,0-221.64-99.43-221.64-221.65s99.43-221.64,221.64-221.64S1187,344.19,1187,466.4,1087.55,688.05,965.33,688.05Zm0-442.07c-121.54,0-220.42,98.88-220.42,220.42s98.88,220.42,220.42,220.42,220.42-98.88,220.42-220.42S1086.87,246,965.33,246Z" transform="translate(-600.88 -19.77)"/></svg>