<svg width="301" height="329" viewBox="0 0 301 329" fill="none" xmlns="http://www.w3.org/2000/svg">
<path fill-rule="evenodd" clip-rule="evenodd" d="M140.827 120.509C171.706 114.244 206.655 109.503 234.451 121.363C263.135 133.603 275.756 159.027 286.102 182.5C296.491 206.07 309.608 233.317 293.323 254.936C277.275 276.24 235.172 273.524 207.627 286.675C182.725 298.565 169.862 323.694 140.827 327.744C110.087 332.033 78.2542 322.144 53.1056 308.233C28.0862 294.393 9.7944 274.107 2.83149 251.408C-3.77606 229.868 1.40026 206.671 16.0679 187.491C29.1591 170.372 56.5954 164.601 78.0066 153.106C99.2303 141.711 115.619 125.624 140.827 120.509Z" fill="url(#paint0_linear)"/>
<ellipse cx="167" cy="88.5607" rx="84" ry="88.5607" fill="#9CD0E8" fill-opacity="0.85"/>
<defs>
<linearGradient id="paint0_linear" x1="0" y1="221.409" x2="301" y2="221.409" gradientUnits="userSpaceOnUse">
<stop offset="0.131072" stop-color="#FB1F70"/>
<stop offset="1" stop-color="#9E75E7"/>
</linearGradient>
</defs>
</svg>
